<?xml version="1.0" encoding="UTF-8"?>
<!DOCTYPE svg PUBLIC "-//W3C//DTD SVG 1.1//EN" "http://www.w3.org/Graphics/SVG/1.1/DTD/svg11.dtd">
<svg xmlns="http://www.w3.org/2000/svg" version="1.1" width="435px" height="103px" style="shape-rendering:geometricPrecision; text-rendering:geometricPrecision; image-rendering:optimizeQuality; fill-rule:evenodd; clip-rule:evenodd" xmlns:xlink="http://www.w3.org/1999/xlink">
<g><path style="opacity:1" fill="#fdfdfd" d="M -0.5,-0.5 C 144.5,-0.5 289.5,-0.5 434.5,-0.5C 434.5,33.8333 434.5,68.1667 434.5,102.5C 289.5,102.5 144.5,102.5 -0.5,102.5C -0.5,68.1667 -0.5,33.8333 -0.5,-0.5 Z"/></g>
<g><path style="opacity:1" fill="#161616" d="M 79.5,25.5 C 73.9269,24.5005 67.5935,24.1672 60.5,24.5C 60.5,42.5 60.5,60.5 60.5,78.5C 65.8333,78.5 71.1667,78.5 76.5,78.5C 79.6804,80.6823 81.0138,83.5157 80.5,87C 65.1667,87.6667 49.8333,87.6667 34.5,87C 33.9838,83.9866 34.9838,81.3199 37.5,79C 43.1569,78.5006 48.8236,78.3339 54.5,78.5C 54.5,60.5 54.5,42.5 54.5,24.5C 47.825,24.3337 41.1583,24.5004 34.5,25C 38.9389,33.6416 42.6055,42.6416 45.5,52C 43.0721,62.7123 36.4055,67.0457 25.5,65C 19.9057,62.2375 16.9057,57.7375 16.5,51.5C 18.9476,42.3229 22.2809,33.4895 26.5,25C 21.3634,25.5472 19.6968,23.5472 21.5,19C 32.495,18.5002 43.495,18.3335 54.5,18.5C 53.8595,13.7055 55.6928,12.0388 60,13.5C 60.4935,15.1341 60.6602,16.8008 60.5,18.5C 71.505,18.3335 82.505,18.5002 93.5,19C 95.5268,20.3957 95.8602,22.0624 94.5,24C 92.5,24.3333 90.5,24.6667 88.5,25C 92.0439,32.2858 95.2105,39.7858 98,47.5C 99.3367,61.1618 93.17,66.9952 79.5,65C 73.7444,62.166 70.7444,57.4993 70.5,51C 73.0794,42.3434 76.0794,33.8434 79.5,25.5 Z"/></g>
<g><path style="opacity:1" fill="#575757" d="M 145.5,19.5 C 137.5,19.5 129.5,19.5 121.5,19.5C 121.5,35.5 121.5,51.5 121.5,67.5C 124.833,67.5 128.167,67.5 131.5,67.5C 128.038,68.4816 124.371,68.815 120.5,68.5C 120.5,51.8333 120.5,35.1667 120.5,18.5C 129.017,18.1739 137.35,18.5073 145.5,19.5 Z"/></g>
<g><path style="opacity:1" fill="#131313" d="M 145.5,19.5 C 156.911,22.9754 161.078,30.642 158,42.5C 156.037,48.7311 151.87,52.5644 145.5,54C 140.845,54.4992 136.179,54.6658 131.5,54.5C 131.5,58.8333 131.5,63.1667 131.5,67.5C 128.167,67.5 124.833,67.5 121.5,67.5C 121.5,51.5 121.5,35.5 121.5,19.5C 129.5,19.5 137.5,19.5 145.5,19.5 Z"/></g>
<g><path style="opacity:1" fill="#121212" d="M 269.5,19.5 C 272.833,19.5 276.167,19.5 279.5,19.5C 279.5,35.5 279.5,51.5 279.5,67.5C 276.167,67.5 272.833,67.5 269.5,67.5C 269.5,51.5 269.5,35.5 269.5,19.5 Z"/></g>
<g><path style="opacity:1" fill="#141414" d="M 408.5,19.5 C 411.833,19.5 415.167,19.5 418.5,19.5C 418.5,35.5 418.5,51.5 418.5,67.5C 415.167,67.5 411.833,67.5 408.5,67.5C 408.5,51.5 408.5,35.5 408.5,19.5 Z"/></g>
<g><path style="opacity:1" fill="#b7b7b7" d="M 79.5,25.5 C 73.5,25.5 67.5,25.5 61.5,25.5C 61.5,42.8333 61.5,60.1667 61.5,77.5C 66.6946,77.1795 71.6946,77.5128 76.5,78.5C 71.1667,78.5 65.8333,78.5 60.5,78.5C 60.5,60.5 60.5,42.5 60.5,24.5C 67.5935,24.1672 73.9269,24.5005 79.5,25.5 Z"/></g>
<g><path style="opacity:1" fill="#a5a5a5" d="M 141.5,29.5 C 138.5,29.5 135.5,29.5 132.5,29.5C 132.5,34.1667 132.5,38.8333 132.5,43.5C 135.833,43.5 139.167,43.5 142.5,43.5C 139.038,44.4816 135.371,44.815 131.5,44.5C 131.5,39.1667 131.5,33.8333 131.5,28.5C 135.042,28.1872 138.375,28.5206 141.5,29.5 Z"/></g>
<g><path style="opacity:1" fill="#fdfdfd" d="M 141.5,29.5 C 145.629,29.9652 147.629,32.2985 147.5,36.5C 147.75,40.2442 146.083,42.5776 142.5,43.5C 139.167,43.5 135.833,43.5 132.5,43.5C 132.5,38.8333 132.5,34.1667 132.5,29.5C 135.5,29.5 138.5,29.5 141.5,29.5 Z"/></g>
<g><path style="opacity:1" fill="#151515" d="M 297.5,30.5 C 313.033,29.701 320.7,37.0343 320.5,52.5C 311.143,52.1684 301.81,52.5017 292.5,53.5C 295.948,60.4764 301.281,62.3098 308.5,59C 309.667,57.8333 310.833,56.6667 312,55.5C 314.583,56.8742 317.083,58.3742 319.5,60C 313.387,67.8159 305.387,70.4826 295.5,68C 284.956,62.7523 281.122,54.2523 284,42.5C 286.833,36.4933 291.333,32.4933 297.5,30.5 Z"/></g>
<g><path style="opacity:1" fill="#151515" d="M 176.5,30.5 C 181.489,30.0395 186.156,31.0395 190.5,33.5C 193.899,31.6878 197.566,31.0211 201.5,31.5C 201.5,43.5 201.5,55.5 201.5,67.5C 197.649,68.0291 194.149,67.3625 191,65.5C 177.219,71.5796 167.886,67.5796 163,53.5C 162.063,48.5967 162.73,43.9301 165,39.5C 168.183,35.4622 172.016,32.4622 176.5,30.5 Z"/></g>
<g><path style="opacity:1" fill="#131313" d="M 222.5,31.5 C 223.5,31.5 224.5,31.5 225.5,31.5C 225.5,34.5 225.5,37.5 225.5,40.5C 221.263,40.8654 218.096,42.8654 216,46.5C 215.5,53.4921 215.334,60.4921 215.5,67.5C 212.167,67.5 208.833,67.5 205.5,67.5C 205.5,55.5 205.5,43.5 205.5,31.5C 208.833,31.5 212.167,31.5 215.5,31.5C 215.343,32.8734 215.51,34.2068 216,35.5C 217.638,33.2663 219.805,31.933 222.5,31.5 Z"/></g>
<g><path style="opacity:1" fill="#8b8b8b" d="M 222.5,31.5 C 223.568,30.5655 224.901,30.2322 226.5,30.5C 226.813,34.0419 226.479,37.3752 225.5,40.5C 225.5,37.5 225.5,34.5 225.5,31.5C 224.5,31.5 223.5,31.5 222.5,31.5 Z"/></g>
<g><path style="opacity:1" fill="#151515" d="M 241.5,30.5 C 246.155,30.1172 250.488,31.1172 254.5,33.5C 257.899,31.6878 261.566,31.0211 265.5,31.5C 265.5,43.5 265.5,55.5 265.5,67.5C 261.649,68.0291 258.149,67.3625 255,65.5C 244.608,70.8695 235.941,68.8695 229,59.5C 223.379,45.5143 227.545,35.8477 241.5,30.5 Z"/></g>
<g><path style="opacity:1" fill="#181818" d="M 337.5,30.5 C 342.489,30.0395 347.156,31.0395 351.5,33.5C 354.899,31.6878 358.566,31.0211 362.5,31.5C 362.667,43.8378 362.5,56.1712 362,68.5C 356.975,79.4283 348.475,83.5949 336.5,81C 332.102,79.4756 328.435,76.9756 325.5,73.5C 328.653,67.8892 332.32,67.3892 336.5,72C 340.5,72.6667 344.5,72.6667 348.5,72C 351.58,70.2894 352.746,67.7894 352,64.5C 338.8,70.5643 329.467,66.8976 324,53.5C 322.823,42.5229 327.323,34.8562 337.5,30.5 Z"/></g>
<g><path style="opacity:1" fill="#161616" d="M 380.5,30.5 C 385.155,30.1172 389.488,31.1172 393.5,33.5C 396.899,31.6878 400.566,31.0211 404.5,31.5C 404.5,43.5 404.5,55.5 404.5,67.5C 400.649,68.0291 397.149,67.3625 394,65.5C 380.937,71.477 371.603,67.8103 366,54.5C 364.463,42.5631 369.297,34.5631 380.5,30.5 Z"/></g>
<g><path style="opacity:1" fill="#f1f1f1" d="M 37.5,48.5 C 35.6028,49.8048 33.2695,50.4714 30.5,50.5C 27.9746,50.4966 25.6413,50.1633 23.5,49.5C 25.5037,42.9924 28.0037,36.6591 31,30.5C 33.2723,36.4854 35.439,42.4854 37.5,48.5 Z"/></g>
<g><path style="opacity:1" fill="#f0f0f0" d="M 83.5,31.5 C 84.7498,31.5774 85.5831,32.244 86,33.5C 87.9754,39.096 90.142,44.596 92.5,50C 87.1667,50.6667 81.8333,50.6667 76.5,50C 79.2539,43.9922 81.5872,37.8256 83.5,31.5 Z"/></g>
<g><path style="opacity:1" fill="#ececec" d="M 299.5,38.5 C 304.522,38.1749 308.189,40.1749 310.5,44.5C 304.872,45.4954 299.206,45.8288 293.5,45.5C 293.351,44.448 293.517,43.448 294,42.5C 295.812,41.0229 297.645,39.6896 299.5,38.5 Z"/></g>
<g><path style="opacity:1" fill="#f8f8f8" d="M 339.5,39.5 C 350.358,39.1856 354.191,44.1856 351,54.5C 346.016,59.4592 340.682,59.7925 335,55.5C 331.975,48.7419 333.475,43.4085 339.5,39.5 Z"/></g>
<g><path style="opacity:1" fill="#f9f9f9" d="M 177.5,40.5 C 187.491,39.3255 191.991,43.6588 191,53.5C 185.451,60.9769 179.451,61.3102 173,54.5C 171.309,48.6102 172.809,43.9436 177.5,40.5 Z"/></g>
<g><path style="opacity:1" fill="#f9f9f9" d="M 241.5,40.5 C 251.491,39.3255 255.991,43.6588 255,53.5C 252.367,58.7315 248.201,60.5649 242.5,59C 236.975,56.0812 235.142,51.5812 237,45.5C 238.025,43.313 239.525,41.6464 241.5,40.5 Z"/></g>
<g><path style="opacity:1" fill="#fafafa" d="M 380.5,40.5 C 390.491,39.3255 394.991,43.6588 394,53.5C 391.367,58.7315 387.201,60.5649 381.5,59C 375.975,56.0812 374.142,51.5812 376,45.5C 377.366,43.6383 378.866,41.9717 380.5,40.5 Z"/></g>
<g><path style="opacity:1" fill="#515151" d="M 37.5,48.5 C 38.2674,49.172 38.9341,50.0053 39.5,51C 33.8041,51.8299 28.1375,51.6632 22.5,50.5C 22.6236,49.8933 22.9569,49.56 23.5,49.5C 25.6413,50.1633 27.9746,50.4966 30.5,50.5C 33.2695,50.4714 35.6028,49.8048 37.5,48.5 Z"/></g>
</svg>
